<?xml version="1.0" encoding="UTF-8"?>
<svg version="1.1" xmlns="http://www.w3.org/2000/svg" width="228" height="216">
<path d="M0 0 C75.24 0 150.48 0 228 0 C228 71.28 228 142.56 228 216 C152.76 216 77.52 216 0 216 C0 144.72 0 73.44 0 0 Z " fill="#FEFEFE" transform="translate(0,0)"/>
<path d="M0 0 C1.71630615 0.00737183 1.71630615 0.00737183 3.46728516 0.01489258 C20.20482104 0.24686269 34.52421025 4.44002317 48.1875 14.3125 C51.23526254 16.40410174 54.1305898 18.2840449 57.4375 19.9375 C60.1875 21.3125 60.1875 21.3125 62.1875 23.3125 C61.8125 25.9375 61.8125 25.9375 61.1875 28.3125 C60.1975 28.6425 59.2075 28.9725 58.1875 29.3125 C58.16171875 30.35148437 58.1359375 31.39046875 58.109375 32.4609375 C57.76414491 42.04797708 57.21241164 50.56516832 50.75 58.1875 C49.904375 58.88875 49.05875 59.59 48.1875 60.3125 C47.45015625 60.92867187 46.7128125 61.54484375 45.953125 62.1796875 C42.88988964 64.54201307 39.68372319 66.5706265 36.375 68.5625 C35.77751953 68.92601563 35.18003906 69.28953125 34.56445312 69.6640625 C33.10735204 70.54997996 31.6476898 71.43168273 30.1875 72.3125 C30.89769287 72.45349121 31.60788574 72.59448242 32.33959961 72.73974609 C35.6016081 73.38795382 38.86330508 74.03771635 42.125 74.6875 C43.24197266 74.90921875 44.35894531 75.1309375 45.50976562 75.359375 C50.24624779 76.30389344 54.974066 77.24984871 59.67578125 78.35546875 C66.67764567 79.9393476 73.83682206 80.76282587 80.9453125 81.72460938 C82.61980469 81.96727539 82.61980469 81.96727539 84.328125 82.21484375 C85.33391602 82.35398193 86.33970703 82.49312012 87.37597656 82.63647461 C90.49279367 83.38590728 92.63470989 84.37570924 95.1875 86.3125 C95.1875 87.3025 95.1875 88.2925 95.1875 89.3125 C95.744375 89.374375 96.30125 89.43625 96.875 89.5 C100.24552012 90.6842368 101.9562468 92.57124607 104.1875 95.3125 C103.82421875 97.48046875 103.82421875 97.48046875 103.1875 99.3125 C90.80649653 99.42278714 78.52885762 99.38900471 66.1875 98.3125 C66.65800781 99.23160156 67.12851563 100.15070313 67.61328125 101.09765625 C72.62155794 111.32547689 72.66616687 123.2125979 69.5625 134.0625 C63.70079822 150.63696709 53.20801536 162.08387976 38.90234375 171.8984375 C35.5408792 174.8874808 34.75364832 177.14586243 33.1875 181.3125 C32.5275 181.9725 31.8675 182.6325 31.1875 183.3125 C29.375 183 29.375 183 27.1875 182.3125 C22.71603814 180.96717322 20.24259775 181.76552018 15.9375 183.4375 C-11.42551752 193.14194641 -45.2127786 196.88921704 -72.32421875 184.5625 C-78.58398451 181.4178767 -83.61680237 177.70389525 -86.8125 171.3125 C-86.85272391 168.9795134 -86.85570247 166.64543334 -86.8125 164.3125 C-87.864375 164.6425 -88.91625 164.9725 -90 165.3125 C-93.20123357 166.15216782 -95.5536008 166.51000904 -98.8125 166.3125 C-100.017964 162.69610801 -99.1969923 161.50268982 -97.6484375 158.1640625 C-96.49650129 155.61257762 -95.65780619 152.97846567 -94.8125 150.3125 C-94.1525 150.3125 -93.4925 150.3125 -92.8125 150.3125 C-92.8125 149.3225 -92.8125 148.3325 -92.8125 147.3125 C-92.1525 147.3125 -91.4925 147.3125 -90.8125 147.3125 C-90.709375 146.755625 -90.60625 146.19875 -90.5 145.625 C-89.67238599 142.84120742 -88.43512248 140.71398127 -86.8125 138.3125 C-86.1525 137.9825 -85.4925 137.6525 -84.8125 137.3125 C-84.420625 136.631875 -84.02875 135.95125 -83.625 135.25 C-73.84326301 119.39684005 -56.93227315 109.36207787 -39.8125 103.3125 C-37.24870599 102.37108678 -34.68787591 101.42184928 -32.12695312 100.47265625 C-28.3585929 99.07738235 -24.58555444 97.69502365 -20.8125 96.3125 C-21.60914062 96.11914062 -22.40578125 95.92578125 -23.2265625 95.7265625 C-33.75098858 93.14026801 -33.75098858 93.14026801 -38.8125 91.3125 C-38.8125 89.3325 -38.8125 87.3525 -38.8125 85.3125 C-31.2225 83.0025 -23.6325 80.6925 -15.8125 78.3125 C-19.050625 77.28125 -22.28875 76.25 -25.625 75.1875 C-47.30185263 68.02629279 -47.30185263 68.02629279 -51.8828125 59.265625 C-52.18960938 58.62109375 -52.49640625 57.9765625 -52.8125 57.3125 C-53.43125 56.24 -54.05 55.1675 -54.6875 54.0625 C-55.8125 51.3125 -55.8125 51.3125 -55.875 49.1875 C-54.21357893 46.25558046 -51.64783948 45.0573243 -48.8125 43.3125 C-47.94625 42.590625 -47.08 41.86875 -46.1875 41.125 C-39.66430792 36.14677447 -29.00669456 37.64572403 -21.22216797 38.64501953 C-18.55275139 39.06733053 -15.90284666 39.54653214 -13.25 40.0625 C-12.41791016 40.21936279 -11.58582031 40.37622559 -10.72851562 40.5378418 C-4.30823424 41.88835498 1.39448613 43.62297919 5.1875 49.3125 C4.70615762 44.57929997 4.18086011 40.67297524 2.1875 36.3125 C1.8575 35.3225 1.5275 34.3325 1.1875 33.3125 C0.49414551 33.20703857 -0.19920898 33.10157715 -0.91357422 32.99291992 C-14.89684241 30.86271962 -28.8690631 28.69045048 -42.8125 26.3125 C-42.8125 25.6525 -42.8125 24.9925 -42.8125 24.3125 C-54.94192265 28.5249871 -63.88949844 35.24814667 -71.8125 45.3125 C-74.1225 44.3225 -76.4325 43.3325 -78.8125 42.3125 C-77.368246 37.69938281 -74.71369431 34.67707168 -71.4375 31.25 C-70.71433594 30.4755957 -70.71433594 30.4755957 -69.9765625 29.68554688 C-67.30875208 26.84012408 -64.58680244 24.05393156 -61.8125 21.3125 C-62.121875 20.714375 -62.43125 20.11625 -62.75 19.5 C-63.8125 17.3125 -63.8125 17.3125 -64.8125 14.3125 C-63.8125 13.3125 -62.8125 12.3125 -61.8125 11.3125 C-61.24390259 10.55332275 -61.24390259 10.55332275 -60.66381836 9.77880859 C-57.89373937 7.58480959 -54.91312955 7.49352968 -51.50390625 7.1640625 C-50.761371 7.08499664 -50.01883575 7.00593079 -49.25379944 6.92446899 C-39.44480733 5.96568917 -29.59748525 5.85028236 -19.75 5.6875 C-17.80402142 5.64919397 -15.8580575 5.61013564 -13.91210938 5.5703125 C-9.2123284 5.47435781 -4.51264928 5.39372132 0.1875 5.3125 C-8.7225 4.9825 -17.6325 4.6525 -26.8125 4.3125 C-19.26335887 -0.72026076 -8.77130201 -0.04462615 0 0 Z " fill="#DCE1D6" transform="translate(120.8125,6.6875)"/>
<path d="M0 0 C1.71630615 0.00737183 1.71630615 0.00737183 3.46728516 0.01489258 C20.20482104 0.24686269 34.52421025 4.44002317 48.1875 14.3125 C51.23526254 16.40410174 54.1305898 18.2840449 57.4375 19.9375 C60.1875 21.3125 60.1875 21.3125 62.1875 23.3125 C61.8125 25.9375 61.8125 25.9375 61.1875 28.3125 C60.1975 28.6425 59.2075 28.9725 58.1875 29.3125 C58.16171875 30.35148437 58.1359375 31.39046875 58.109375 32.4609375 C57.76414491 42.04797708 57.21241164 50.56516832 50.75 58.1875 C49.904375 58.88875 49.05875 59.59 48.1875 60.3125 C47.45015625 60.92867187 46.7128125 61.54484375 45.953125 62.1796875 C42.88988964 64.54201307 39.68372319 66.5706265 36.375 68.5625 C35.77751953 68.92601563 35.18003906 69.28953125 34.56445312 69.6640625 C33.10735204 70.54997996 31.6476898 71.43168273 30.1875 72.3125 C30.89769287 72.45349121 31.60788574 72.59448242 32.33959961 72.73974609 C35.6016081 73.38795382 38.86330508 74.03771635 42.125 74.6875 C43.24197266 74.90921875 44.35894531 75.1309375 45.50976562 75.359375 C50.24457622 76.3035601 54.97117768 77.24906963 59.671875 78.3515625 C66.70976648 79.94234633 73.89409709 80.80221192 81.03320312 81.8125 C82.15275391 81.9775 83.27230469 82.1425 84.42578125 82.3125 C85.43680908 82.456875 86.44783691 82.60125 87.48950195 82.75 C90.04091641 83.28193909 91.93656626 84.02567767 94.1875 85.3125 C94.04700482 86.79218324 93.89995174 88.27124516 93.75 89.75 C93.66878906 90.57371094 93.58757812 91.39742188 93.50390625 92.24609375 C93.1875 94.3125 93.1875 94.3125 92.1875 95.3125 C88.0828328 95.52481037 85.063435 95.57928223 81.109375 94.375 C77.14766185 93.17908098 73.2109314 92.82578488 69.10327148 92.42553711 C56.81150347 91.21067028 45.89204221 88.39153609 34.34716797 84.08544922 C31.32995768 83.005584 28.28074024 82.14705206 25.1875 81.3125 C25.5175 79.0025 25.8475 76.6925 26.1875 74.3125 C22.03519114 74.14693745 18.22053311 74.25284032 14.1875 75.3125 C11.5556885 77.92107254 10.45724405 80.87207318 9.1875 84.3125 C5.59923003 92.82956343 2.495386 97.00470726 -5.8125 101.3125 C-6.4725 101.3125 -7.1325 101.3125 -7.8125 101.3125 C-8.1425 99.3325 -8.4725 97.3525 -8.8125 95.3125 C-9.90304688 95.47298828 -9.90304688 95.47298828 -11.015625 95.63671875 C-21.09001869 96.83789646 -29.35522218 94.7276281 -38.8125 91.3125 C-38.8125 89.3325 -38.8125 87.3525 -38.8125 85.3125 C-27.4275 81.8475 -27.4275 81.8475 -15.8125 78.3125 C-19.050625 77.28125 -22.28875 76.25 -25.625 75.1875 C-47.30185263 68.02629279 -47.30185263 68.02629279 -51.8828125 59.265625 C-52.18960938 58.62109375 -52.49640625 57.9765625 -52.8125 57.3125 C-53.43125 56.24 -54.05 55.1675 -54.6875 54.0625 C-55.8125 51.3125 -55.8125 51.3125 -55.875 49.1875 C-54.21357893 46.25558046 -51.64783948 45.0573243 -48.8125 43.3125 C-47.94625 42.590625 -47.08 41.86875 -46.1875 41.125 C-39.66430792 36.14677447 -29.00669456 37.64572403 -21.22216797 38.64501953 C-18.55275139 39.06733053 -15.90284666 39.54653214 -13.25 40.0625 C-12.41791016 40.21936279 -11.58582031 40.37622559 -10.72851562 40.5378418 C-4.30823424 41.88835498 1.39448613 43.62297919 5.1875 49.3125 C4.70615762 44.57929997 4.18086011 40.67297524 2.1875 36.3125 C1.8575 35.3225 1.5275 34.3325 1.1875 33.3125 C0.49414551 33.20703857 -0.19920898 33.10157715 -0.91357422 32.99291992 C-14.89684241 30.86271962 -28.8690631 28.69045048 -42.8125 26.3125 C-42.8125 25.6525 -42.8125 24.9925 -42.8125 24.3125 C-54.94192265 28.5249871 -63.88949844 35.24814667 -71.8125 45.3125 C-75.2775 43.8275 -75.2775 43.8275 -78.8125 42.3125 C-77.368246 37.69938281 -74.71369431 34.67707168 -71.4375 31.25 C-70.71433594 30.4755957 -70.71433594 30.4755957 -69.9765625 29.68554688 C-67.30875208 26.84012408 -64.58680244 24.05393156 -61.8125 21.3125 C-62.121875 20.714375 -62.43125 20.11625 -62.75 19.5 C-63.8125 17.3125 -63.8125 17.3125 -64.8125 14.3125 C-63.8125 13.3125 -62.8125 12.3125 -61.8125 11.3125 C-61.43343506 10.80638184 -61.05437012 10.30026367 -60.66381836 9.77880859 C-57.89373937 7.58480959 -54.91312955 7.49352968 -51.50390625 7.1640625 C-50.761371 7.08499664 -50.01883575 7.00593079 -49.25379944 6.92446899 C-39.44480733 5.96568917 -29.59748525 5.85028236 -19.75 5.6875 C-17.80402142 5.64919397 -15.8580575 5.61013564 -13.91210938 5.5703125 C-9.2123284 5.47435781 -4.51264928 5.39372132 0.1875 5.3125 C-8.7225 4.9825 -17.6325 4.6525 -26.8125 4.3125 C-19.26335887 -0.72026076 -8.77130201 -0.04462615 0 0 Z " fill="#F5E34D" transform="translate(120.8125,6.6875)"/>
<path d="M0 0 C0.495 2.97 0.495 2.97 1 6 C1.680625 6.103125 2.36125 6.20625 3.0625 6.3125 C6.58640154 7.13724291 9.69197006 8.5466488 13 10 C13.029729 11.69358643 13.029729 11.69358643 13.06005859 13.42138672 C13.1367325 17.65222661 13.22534914 21.88274993 13.31738281 26.11328125 C13.35541941 27.93645937 13.39031406 29.75970609 13.421875 31.58300781 C13.24780223 52.47236888 13.24780223 52.47236888 22.47265625 70.59765625 C22.93542969 71.01917969 23.39820313 71.44070312 23.875 71.875 C24.57625 72.57625 25.2775 73.2775 26 74 C25.91796875 75.9921875 25.91796875 75.9921875 25 78 C17.15710229 83.11287496 6.97538892 83.12304666 -2 82 C-10.83088945 79.41727499 -18.25267618 73.14704444 -25.50732422 67.67114258 C-33.70772838 61.21531347 -33.70772838 61.21531347 -43.55078125 59.07421875 C-47.22801498 60.06119994 -50.68343567 61.34732789 -54.1875 62.8125 C-65.65640787 67.37179906 -77.81462065 69.3480224 -90 71 C-91.205464 67.38360801 -90.3844923 66.19018982 -88.8359375 62.8515625 C-87.68400129 60.30007762 -86.84530619 57.66596567 -86 55 C-85.34 55 -84.68 55 -84 55 C-84 54.01 -84 53.02 -84 52 C-83.34 52 -82.68 52 -82 52 C-81.896875 51.443125 -81.79375 50.88625 -81.6875 50.3125 C-80.85988599 47.52870742 -79.62262248 45.40148127 -78 43 C-77.01 42.505 -77.01 42.505 -76 42 C-75.608125 41.319375 -75.21625 40.63875 -74.8125 39.9375 C-65.02049857 24.06770459 -48.11855671 14.08407865 -31 8 C-29.6313654 7.48035799 -28.26422899 6.95675683 -26.8984375 6.4296875 C-26.19871826 6.16099854 -25.49899902 5.89230957 -24.77807617 5.61547852 C-23.42851589 5.09712002 -22.07966536 4.57690812 -20.73168945 4.05444336 C-13.86701284 1.45459975 -7.3907031 -0.30794596 0 0 Z " fill="#FDFDFC" transform="translate(112,102)"/>
<path d="M0 0 C2.19826394 1.48103376 2.84960639 2.37586652 3.46875 4.9453125 C3.5629731 11.51737353 1.62795597 15.61141834 -2 21 C-2.5465625 21.84304687 -3.093125 22.68609375 -3.65625 23.5546875 C-12.24557749 36.11111963 -21.60839702 45.61192425 -36 51 C-38.10611389 51.89124576 -40.21034592 52.78695409 -42.3125 53.6875 C-43.30378906 54.0896875 -44.29507813 54.491875 -45.31640625 54.90625 C-46.87846041 55.54289507 -48.43310999 56.19976445 -49.96484375 56.90625 C-58.60707685 60.68840891 -69.68557319 61.33722644 -79 61 C-79.66 60.67 -80.32 60.34 -81 60 C-81.19622241 55.78121808 -80.80230168 52.82989106 -79 49 C-78.34 49 -77.68 49 -77 49 C-76.896875 48.443125 -76.79375 47.88625 -76.6875 47.3125 C-75.02264528 41.71253411 -71.6957109 38.64358021 -67.3359375 35.0078125 C-64.94807809 33.00409743 -64.94807809 33.00409743 -62.6640625 30.6796875 C-55.25320417 23.40564502 -47.11434793 18.88504349 -37.97802734 14.09472656 C-35.76525462 12.90855351 -35.76525462 12.90855351 -32.89453125 10.8984375 C-27.2418606 7.19101788 -20.76954843 5.09203744 -14.4375 2.8125 C-13.70853516 2.53986328 -12.97957031 2.26722656 -12.22851562 1.98632812 C-8.06172578 0.48988425 -4.48688985 -0.61274707 0 0 Z " fill="#3A7F25" transform="translate(107,105)"/>
<path d="M0 0 C4.21632099 2.36378624 8.08592747 5.17026348 12 8 C16.29065035 11.06511348 20.61556554 14.0696156 25 17 C26.22783203 17.83144531 26.22783203 17.83144531 27.48046875 18.6796875 C34.87472323 23.06422031 42.69701117 22.95009325 51 22 C54.07589408 21.09490104 56.87268347 20.05428394 59.765625 18.6796875 C62 18 62 18 64.15625 18.71875 C66.63504181 20.44130024 68.21965006 22.58381079 70 25 C58.28480181 36.71519819 28.15483012 37.47637213 12.9375 37.5 C-3.67690775 37.30004899 -21.50031344 35.86560138 -35 25 C-40.23660682 19.46293213 -41.11972596 16.42300925 -41 9 C-40.1028125 8.85304687 -39.205625 8.70609375 -38.28125 8.5546875 C-26.86770434 6.50307909 -10.84353048 -3.32718821 0 0 Z " fill="#FAE750" transform="translate(75,161)"/>
<path d="M0 0 C1.24813477 0.23529419 1.24813477 0.23529419 2.52148438 0.4753418 C14.24447102 2.94128481 21.0331586 10.23342298 28.4375 19.25 C30.05370393 22.48240787 30.00878046 25.75510776 29.4375 29.25 C25.96979365 34.28376729 21.19628944 35.92353726 15.4375 37.25 C14.4475 37.25 13.4575 37.25 12.4375 37.25 C12.4375 37.91 12.4375 38.57 12.4375 39.25 C3.83104738 39.9638993 -3.4199903 37.87078559 -11.5625 35.25 C-12.61050781 34.93804687 -13.65851563 34.62609375 -14.73828125 34.3046875 C-32.77625442 28.73654533 -32.77625442 28.73654533 -37.5625 21.25 C-38.2532586 19.92898721 -38.92180186 18.5960045 -39.5625 17.25 C-40.18125 16.1775 -40.8 15.105 -41.4375 14 C-42.5625 11.25 -42.5625 11.25 -42.625 9.125 C-40.96357893 6.19308046 -38.39783948 4.9948243 -35.5625 3.25 C-34.263125 2.1671875 -34.263125 2.1671875 -32.9375 1.0625 C-24.64712251 -5.26436703 -9.52775285 -1.85310908 0 0 Z " fill="#5E6F3B" transform="translate(107.5625,46.75)"/>
<path d="M0 0 C3.65745023 -0.00439099 7.31370772 -0.04088705 10.97094727 -0.07861328 C23.69480441 -0.13930026 34.95640339 0.44287428 47.09790039 4.37060547 C49.592079 5.0605969 52.09483859 5.71313112 54.59790039 6.37060547 C59.80907496 7.87314093 64.37073224 9.7233913 69.09790039 12.37060547 C69.09790039 14.35060547 69.09790039 16.33060547 69.09790039 18.37060547 C67.6846191 19.18897989 66.26711693 20.00006766 64.84790039 20.80810547 C64.05899414 21.26056641 63.27008789 21.71302734 62.45727539 22.17919922 C57.70495753 24.57896238 53.1622204 24.53025822 47.91430664 24.53857422 C47.11078766 24.54280899 46.30726868 24.54704376 45.47940063 24.55140686 C42.87301429 24.56130604 40.26680223 24.56132638 37.66040039 24.55810547 C36.77486481 24.55750122 35.88932922 24.55689697 34.97695923 24.55627441 C-21.8157432 24.45054521 -21.8157432 24.45054521 -42.90209961 9.37060547 C-42.02709961 4.62060547 -42.02709961 4.62060547 -40.90209961 2.37060547 C-38.59181998 1.86786263 -36.40522058 1.5279631 -34.06225586 1.26904297 C-33.31943863 1.18536469 -32.5766214 1.1016864 -31.81129456 1.01547241 C-21.23886618 -0.04131349 -10.61494114 -0.00142454 0 0 Z " fill="#3A7F25" transform="translate(102.902099609375,12.62939453125)"/>
<path d="M0 0 C2.375 0.125 2.375 0.125 5 1 C6.421875 3.10546875 6.421875 3.10546875 8 6 C8.92425781 7.66095703 8.92425781 7.66095703 9.8671875 9.35546875 C16.62357697 22.06148969 20.21828724 35.02004187 22.8125 49.125 C22.93665283 49.79909912 23.06080566 50.47319824 23.1887207 51.16772461 C24.87769511 61.20060652 23.29657338 70.09111407 21.5 80 C21.25848897 81.36056618 21.01759829 82.72124263 20.77734375 84.08203125 C20.1909744 87.38915436 19.59835768 90.69502864 19 94 C16.525 94.495 16.525 94.495 14 95 C10 90.25 10 90.25 10 88 C9.40832031 87.74476563 8.81664062 87.48953125 8.20703125 87.2265625 C0.05894756 82.69824696 -3.26175261 72.44565314 -6.6171875 64.28125 C-7.67189964 61.2024333 -7.67189964 61.2024333 -9 60 C-10.23166668 45.64641129 -9.70108448 30.90031675 -3.93359375 17.52734375 C-2.73878372 14.29285803 -2.36295138 11.16791192 -1.9375 7.75 C-1.10320285 1.10320285 -1.10320285 1.10320285 0 0 Z " fill="#3B7F26" transform="translate(134,88)"/>
<path d="M0 0 C1.71630615 0.00737183 1.71630615 0.00737183 3.46728516 0.01489258 C20.20482104 0.24686269 34.52421025 4.44002317 48.1875 14.3125 C52.08205229 16.98523196 55.9203049 19.28050233 60.1875 21.3125 C60.1875 22.3025 60.1875 23.2925 60.1875 24.3125 C55.86854425 27.5737523 51.63798924 29.57451437 46.56152344 31.44824219 C40.07699256 33.84628316 34.63465187 35.95380951 31.1875 42.3125 C30.51779586 43.97794846 29.85174642 45.64486727 29.1875 47.3125 C27.91877113 50.00119455 26.58539549 52.65641062 25.25 55.3125 C24.90259766 56.01117188 24.55519531 56.70984375 24.19726562 57.4296875 C22.33508794 61.14702902 20.46707607 64.82849121 18.1875 68.3125 C17.8575 68.3125 17.5275 68.3125 17.1875 68.3125 C17.06375 67.76722656 16.94 67.22195312 16.8125 66.66015625 C15.45802969 61.70787419 13.85165547 58.69297757 10.1875 55.0625 C5.83334806 50.54088068 4.79238986 46.32864658 3.7578125 40.23046875 C3.20767622 37.41573041 2.7961639 35.66502662 1.1875 33.3125 C-1.20142419 32.4375222 -1.20142419 32.4375222 -4.0625 32.15234375 C-5.13838379 31.99991211 -6.21426758 31.84748047 -7.32275391 31.69042969 C-8.47437012 31.54508789 -9.62598633 31.39974609 -10.8125 31.25 C-13.17461614 30.92155648 -15.5365949 30.59212355 -17.8984375 30.26171875 C-19.65172363 30.02461182 -19.65172363 30.02461182 -21.44042969 29.78271484 C-26.12160143 29.12995371 -30.7791347 28.35990819 -35.4375 27.5625 C-36.19417969 27.43480225 -36.95085937 27.30710449 -37.73046875 27.17553711 C-39.42477455 26.88960291 -41.11869167 26.60136654 -42.8125 26.3125 C-42.8125 25.6525 -42.8125 24.9925 -42.8125 24.3125 C-54.94192265 28.5249871 -63.88949844 35.24814667 -71.8125 45.3125 C-75.2775 43.8275 -75.2775 43.8275 -78.8125 42.3125 C-77.368246 37.69938281 -74.71369431 34.67707168 -71.4375 31.25 C-70.71433594 30.4755957 -70.71433594 30.4755957 -69.9765625 29.68554688 C-67.30875208 26.84012408 -64.58680244 24.05393156 -61.8125 21.3125 C-62.121875 20.714375 -62.43125 20.11625 -62.75 19.5 C-63.8125 17.3125 -63.8125 17.3125 -64.8125 14.3125 C-63.8225 13.3225 -62.8325 12.3325 -61.8125 11.3125 C-61.626875 11.89 -61.44125 12.4675 -61.25 13.0625 C-57.80055729 18.46162772 -50.63800246 20.24676489 -44.75 21.875 C-44.00395508 22.08552002 -43.25791016 22.29604004 -42.48925781 22.51293945 C-22.81677473 27.97215837 -3.59562606 29.49398522 16.74099731 29.66397095 C18.48184792 29.67952164 20.22265573 29.70120201 21.96334839 29.7293396 C35.55078068 29.95415 35.55078068 29.95415 48.1875 25.3125 C49.1775 24.8175 49.1775 24.8175 50.1875 24.3125 C50.84522428 21.28315509 50.84522428 21.28315509 51.1875 18.3125 C50.218125 18.044375 49.24875 17.77625 48.25 17.5 C45.47730319 16.70700871 42.73533832 15.85094327 40 14.9375 C39.22527344 14.68097656 38.45054687 14.42445312 37.65234375 14.16015625 C36.0085242 13.59484905 34.37513816 12.99824767 32.75390625 12.37109375 C13.67768189 5.31095266 -6.69549219 4.58205907 -26.8125 4.3125 C-19.26335887 -0.72026076 -8.77130201 -0.04462615 0 0 Z " fill="#E2E3D2" transform="translate(120.8125,6.6875)"/>
<path d="M0 0 C3.37824743 0.42228093 5.30390941 1.18702118 8.25 3 C12.52373904 5.28746795 16.69619412 5.31915946 21.4375 5.4375 C28.21015251 5.65903878 33.8219933 6.13654511 39 11 C42.79219423 15.68815221 43.61510074 20.60991526 43.3046875 26.53515625 C42.39471967 33.89656267 42.39471967 33.89656267 40 37 C37.09964324 38.5554986 34.19935518 39.29869207 31 40 C29.515 40.495 29.515 40.495 28 41 C25.765625 41.203125 25.765625 41.203125 23.25 41.25 C22.43015625 41.27578125 21.6103125 41.3015625 20.765625 41.328125 C16.93271068 40.87337245 14.33208461 39.97646057 11 38 C9.851023 35.22330558 9.24255809 33.20096609 8.75 30.3125 C8.44720332 28.86130929 8.14124887 27.41077362 7.83203125 25.9609375 C7.6923291 25.2709668 7.55262695 24.58099609 7.40869141 23.87011719 C6.6502429 20.3995583 5.36813043 17.27161624 4 14 C3.7421875 13.36578125 3.484375 12.7315625 3.21875 12.078125 C2.01274964 9.15960412 0.75821387 6.63732081 -1 4 C-0.625 1.8125 -0.625 1.8125 0 0 Z " fill="#5E6E38" transform="translate(147,92)"/>
<path d="M0 0 C3.93067198 5.89600798 2.64738493 14.7115788 1.3125 21.4921875 C-4.12109227 40.37392063 -16.14473623 53.12059028 -32 64 C-32.33 63.34 -32.66 62.68 -33 62 C-32.70480469 61.19691406 -32.40960938 60.39382812 -32.10546875 59.56640625 C-30.59539649 54.69468904 -30.48918519 50.01247402 -30.3125 44.9375 C-30.25280029 43.40138062 -30.25280029 43.40138062 -30.19189453 41.83422852 C-29.87876535 32.37068547 -30.38126528 23.34201987 -32 14 C-30.576875 14.495 -30.576875 14.495 -29.125 15 C-22.70286294 16.82743737 -16.05898731 16.94761545 -10 14 C-7.67251306 13.31320058 -5.34013344 12.64238957 -3 12 C-2.01 8.04 -1.02 4.08 0 0 Z " fill="#F8E650" transform="translate(190,116)"/>
<path d="M0 0 C1 2 1 2 0.875 4 C-0.37530054 6.85782981 -2.15500641 6.87523509 -5 8 C-5.60585937 8.7734375 -6.21171875 9.546875 -6.8359375 10.34375 C-9.1285204 13.15775067 -11.22706048 14.68156021 -14.3125 16.5625 C-15.28445312 17.15675781 -16.25640625 17.75101563 -17.2578125 18.36328125 C-18.16273437 18.90339844 -19.06765625 19.44351563 -20 20 C-20.65742187 20.40605469 -21.31484375 20.81210938 -21.9921875 21.23046875 C-24.87076663 22.96159583 -27.55422702 24.18474234 -30.75 25.25 C-35.61200291 26.94934082 -39.33612383 30.07601795 -43.4140625 33.1484375 C-46.47306989 35.33872376 -49.49358721 36.6466477 -53 38 C-63.24699528 42.25156625 -69.84003759 47.76005639 -76 57 C-77.32 57 -78.64 57 -80 57 C-80.33 57.99 -80.66 58.98 -81 60 C-81.19622241 55.78121808 -80.80230168 52.82989106 -79 49 C-78.34 49 -77.68 49 -77 49 C-76.896875 48.443125 -76.79375 47.88625 -76.6875 47.3125 C-75.02264528 41.71253411 -71.6957109 38.64358021 -67.3359375 35.0078125 C-64.94807809 33.00409743 -64.94807809 33.00409743 -62.6640625 30.6796875 C-55.25320417 23.40564502 -47.11434793 18.88504349 -37.97802734 14.09472656 C-35.76525462 12.90855351 -35.76525462 12.90855351 -32.89453125 10.8984375 C-27.2418606 7.19101788 -20.76954843 5.09203744 -14.4375 2.8125 C-13.70853516 2.53986328 -12.97957031 2.26722656 -12.22851562 1.98632812 C-7.99946399 0.4675238 -4.56359633 -0.32442628 0 0 Z " fill="#82A381" transform="translate(107,105)"/>
<path d="M0 0 C1.72573242 0.09958008 1.72573242 0.09958008 3.48632812 0.20117188 C11.59273927 0.79115137 17.16945336 2.19851385 23.6875 7.25 C25.52995558 9.78337642 25.5280626 11.24743663 25.1875 14.3125 C25.81398437 14.43367188 26.44046875 14.55484375 27.0859375 14.6796875 C27.90320313 14.84726563 28.72046875 15.01484375 29.5625 15.1875 C30.37460938 15.34992188 31.18671875 15.51234375 32.0234375 15.6796875 C34.1875 16.3125 34.1875 16.3125 36.1875 18.3125 C35.8125 20.9375 35.8125 20.9375 35.1875 23.3125 C4.89725845 26.22702496 4.89725845 26.22702496 -6.875 17.84375 C-11.39142354 14.08006372 -16.18479895 9.64486405 -18.8125 4.3125 C-18.46484375 2.07421875 -18.46484375 2.07421875 -17.8125 0.3125 C-11.81819723 -1.1285768 -6.0956733 -0.4496531 0 0 Z " fill="#445A2D" transform="translate(92.8125,55.6875)"/>
<path d="M0 0 C2.375 0.125 2.375 0.125 5 1 C6.421875 3.10546875 6.421875 3.10546875 8 6 C8.61617187 7.10730469 9.23234375 8.21460937 9.8671875 9.35546875 C16.62357697 22.06148969 20.21828724 35.02004187 22.8125 49.125 C22.93665283 49.79909912 23.06080566 50.47319824 23.1887207 51.16772461 C24.87769511 61.20060652 23.29657338 70.09111407 21.5 80 C21.25848897 81.36056618 21.01759829 82.72124263 20.77734375 84.08203125 C20.1909744 87.38915436 19.59835768 90.69502864 19 94 C16.625 94.625 16.625 94.625 14 95 C13.34 94.34 12.68 93.68 12 93 C12.04574451 89.94731621 12.20438291 86.97712609 12.4375 83.9375 C14.00613252 58.56945991 13.69963461 32.31997566 0.390625 10.0078125 C-1.13352757 6.71119036 -1.35570598 4.58844564 -1 1 C-0.67 0.67 -0.34 0.34 0 0 Z " fill="#80A27F" transform="translate(134,88)"/>
<path d="M0 0 C3.65745023 -0.00439099 7.31370772 -0.04088705 10.97094727 -0.07861328 C23.67636497 -0.13943003 34.98104665 0.39102722 47.09790039 4.37060547 C48.63761438 4.79955237 50.17892129 5.2228987 51.72290039 5.63623047 C52.83665039 5.96107422 53.95040039 6.28591797 55.09790039 6.62060547 C56.25290039 6.95576172 57.40790039 7.29091797 58.59790039 7.63623047 C59.42290039 7.87857422 60.24790039 8.12091797 61.09790039 8.37060547 C61.09790039 11.37060547 61.09790039 11.37060547 60.09790039 13.05810547 C54.91602946 16.45870826 45.93619809 13.91978831 40.09790039 13.05810547 C38.13446768 12.78258832 36.17092183 12.50787646 34.20727539 12.23388672 C31.18937514 11.80819887 28.17169448 11.38114573 25.15454102 10.95019531 C13.41445219 9.29297916 1.76287966 8.09278279 -10.08959961 7.62060547 C-11.19464844 7.57597168 -12.29969727 7.53133789 -13.43823242 7.48535156 C-18.15483343 7.33607342 -22.27594438 7.40951792 -26.90209961 8.37060547 C-29.17610963 8.28796267 -31.44843343 8.13912058 -33.71459961 7.93310547 C-34.87604492 7.83126953 -36.03749023 7.72943359 -37.23413086 7.62451172 C-38.11456055 7.54072266 -38.99499023 7.45693359 -39.90209961 7.37060547 C-40.23209961 5.72060547 -40.56209961 4.07060547 -40.90209961 2.37060547 C-27.28299455 0.26903354 -13.76380854 -0.00184712 0 0 Z " fill="#7EA179" transform="translate(102.902099609375,12.62939453125)"/>
<path d="M0 0 C6.24557504 0.07386842 12.12741498 1.5698054 18.18359375 2.984375 C29.09625175 5.4452433 39.98731961 7.41985865 51.07006836 8.94042969 C52.08721924 9.08383789 53.10437012 9.22724609 54.15234375 9.375 C55.48749023 9.55337402 55.48749023 9.55337402 56.84960938 9.73535156 C59.26765691 10.23886513 61.10198498 11.0278469 63.24609375 12.234375 C63.10559857 13.71405824 62.95854549 15.19312016 62.80859375 16.671875 C62.68677734 17.90744141 62.68677734 17.90744141 62.5625 19.16796875 C62.24609375 21.234375 62.24609375 21.234375 61.24609375 22.234375 C57.14142655 22.44668537 54.12202875 22.50115723 50.16796875 21.296875 C46.2062556 20.10095598 42.26952515 19.74765988 38.16186523 19.34741211 C25.87009722 18.13254528 14.95063596 15.31341109 3.40576172 11.00732422 C0.38855143 9.927459 -2.66066601 9.06892706 -5.75390625 8.234375 C-4.74358871 0.29616579 -4.74358871 0.29616579 0 0 Z " fill="#84A482" transform="translate(151.75390625,79.765625)"/>
<path d="M0 0 C-1.67010825 4.32534948 -3.67158096 8.3915821 -5.796875 12.5078125 C-7.14577383 15.15067774 -7.14577383 15.15067774 -8.1875 18.75 C-10.87697365 23.57250448 -15.07655421 25.69450995 -20 28 C-20.66 28 -21.32 28 -22 28 C-22.33 26.02 -22.66 24.04 -23 22 C-23.72703125 22.10699219 -24.4540625 22.21398437 -25.203125 22.32421875 C-35.27751869 23.52539646 -43.54272218 21.4151281 -53 18 C-53 16.02 -53 14.04 -53 12 C-28.63651019 3.43642226 -28.63651019 3.43642226 -15 6 C-15 5.34 -15 4.68 -15 4 C-13.06441401 3.32779649 -11.12645628 2.66241923 -9.1875 2 C-8.10855469 1.62875 -7.02960938 1.2575 -5.91796875 0.875 C-3 0 -3 0 0 0 Z " fill="#F7E551" transform="translate(135,80)"/>
<path d="M0 0 C18.315 0.99 18.315 0.99 37 2 C35.02 4.64 33.04 7.28 31 10 C29.83993172 12.47041552 29.83993172 12.47041552 29 15 C27.73923324 17.69236121 26.39785498 20.3439912 25.0625 23 C24.71509766 23.69867188 24.36769531 24.39734375 24.00976562 25.1171875 C22.14758794 28.83452902 20.27957607 32.51599121 18 36 C17.67 36 17.34 36 17 36 C16.87625 35.45472656 16.7525 34.90945312 16.625 34.34765625 C15.27052969 29.39537419 13.66415547 26.38047757 10 22.75 C5.66244441 18.24592034 4.64536219 14.10045033 3.66796875 8.015625 C3.05468756 4.49259791 3.05468756 4.49259791 0 0 Z " fill="#F7E44D" transform="translate(121,39)"/>
<path d="M0 0 C1.04220703 -0.00580078 1.04220703 -0.00580078 2.10546875 -0.01171875 C6.21687906 -0.00397598 10.0924223 0.32859751 14.125 1.125 C13.135 1.785 12.145 2.445 11.125 3.125 C12.16140625 3.45113281 13.1978125 3.77726562 14.265625 4.11328125 C15.6355468 4.55428347 17.00533133 4.99571223 18.375 5.4375 C19.39787109 5.75750977 19.39787109 5.75750977 20.44140625 6.08398438 C24.12734003 7.2828075 27.3251953 8.38233418 30.125 11.125 C30.375 13.8125 30.375 13.8125 30.125 16.125 C27.63337891 15.70972982 25.52467493 15.34528359 23.29956055 14.11889648 C20.64410356 12.90520328 18.49403989 12.76057767 15.58203125 12.59765625 C14.50759766 12.52740234 13.43316406 12.45714844 12.32617188 12.38476562 C10.0867475 12.25440144 7.8471635 12.12674811 5.60742188 12.00195312 C-1.06496942 11.56031005 -6.63176441 10.54450102 -12.875 8.125 C-12.545 5.815 -12.215 3.505 -11.875 1.125 C-7.97428911 -0.14828905 -4.05488424 -0.02232046 0 0 Z " fill="#91945C" transform="translate(88.875,44.875)"/>
<path d="M0 0 C1.71630615 0.00737183 1.71630615 0.00737183 3.46728516 0.01489258 C19.21190987 0.23310166 35.95512803 3.58860439 48.1875 14.3125 C49.4296875 16.49609375 49.4296875 16.49609375 50.1875 18.3125 C49.5790625 18.08175781 48.970625 17.85101562 48.34375 17.61328125 C45.30219517 16.48164394 42.24794811 15.39204163 39.1875 14.3125 C38.03765625 13.90386719 36.8878125 13.49523438 35.703125 13.07421875 C15.24772187 6.22038554 -5.34330284 4.60017782 -26.8125 4.3125 C-19.26335887 -0.72026076 -8.77130201 -0.04462615 0 0 Z " fill="#F7E756" transform="translate(120.8125,6.6875)"/>
<path d="M0 0 C2.0625 -0.375 2.0625 -0.375 5 0 C6.77504236 1.33803955 8.34018856 2.83077165 9.9609375 4.3515625 C12.96152105 6.77732162 16.32101828 8.1479908 19.86328125 9.62890625 C22.58727105 11.37684121 22.96519772 13.00247416 24 16 C24.66 16.33 25.32 16.66 26 17 C26.3125 19.3125 26.3125 19.3125 26 22 C22.6068601 25.07503304 19.32872014 25.48880963 14.921875 25.2734375 C11.86989601 24.83921285 10.31447635 24.05731231 8 22 C6.41571193 19.43804718 5.2320386 16.74386285 4 14 C3.2516222 12.62411641 2.50166253 11.24909186 1.75 9.875 C0.02973654 6.47479175 -0.38499598 3.84995983 0 0 Z " fill="#455B2D" transform="translate(154,105)"/>
<path d="M0 0 C-0.1796875 2.375 -0.1796875 2.375 -1 5 C-3.2578125 6.1875 -3.2578125 6.1875 -6.125 7 C-11.28649416 8.63771726 -14.72795371 10.72779433 -19 14 C-19.66 14 -20.32 14 -21 14 C-21.268125 14.57105469 -21.53625 15.14210938 -21.8125 15.73046875 C-23.04345378 18.08304818 -24.46302967 20.14921426 -26 22.3125 C-28.62721966 26.18284312 -30.0302508 29.44217874 -31 34 C-31.66 34 -32.32 34 -33 34 C-33.226875 34.969375 -33.45375 35.93875 -33.6875 36.9375 C-35.02234973 41.69229318 -37.49175879 45.77811307 -40 50 C-41.98 50 -43.96 50 -46 50 C-44.54521136 45.09766536 -42.46113967 40.8827106 -40 36.4375 C-37.75374248 32.35598498 -35.6357029 28.3747337 -34 24 C-30.718617 16.45281909 -27.42635635 11.74176244 -19.62280273 8.62744141 C-17.6371202 7.87956489 -15.64505883 7.15076644 -13.65234375 6.421875 C-9.52554194 4.81529119 -4.21526867 0 0 0 Z " fill="#434232" transform="translate(183,30)"/>
<path d="M0 0 C2.23085067 0.25659311 4.45967123 0.53087314 6.6875 0.8125 C7.92886719 0.96332031 9.17023438 1.11414063 10.44921875 1.26953125 C13.98451749 1.99681493 16.00288322 3.07760691 19 5 C21.1762935 5.66766318 21.1762935 5.66766318 23.4375 6 C27.67394027 6.75244238 31.86301653 7.62373858 36.0625 8.5625 C40.14645793 9.4497354 44.15391294 10.2078169 48.3125 10.625 C52 11 52 11 53 12 C55.75137602 11.99090454 58.4898616 11.86694887 61.23828125 11.7421875 C64.40442348 12.03775382 65.67803293 12.89313202 68 15 C67.67 15.99 67.34 16.98 67 18 C62.19923318 18.16844796 58.71292938 17.91352247 54.09106445 16.51269531 C50.7388133 15.69077734 47.34555619 15.44723315 43.91577148 15.11303711 C31.62400347 13.89817028 20.70454221 11.07903609 9.15966797 6.77294922 C6.14245768 5.693084 3.09324024 4.83455206 0 4 C0 2.68 0 1.36 0 0 Z " fill="#448631" transform="translate(146,84)"/>
<path d="M0 0 C0.65355469 0.28746094 1.30710937 0.57492188 1.98046875 0.87109375 C2.74746094 1.02449219 3.51445313 1.17789062 4.3046875 1.3359375 C5.47451172 1.56990234 5.47451172 1.56990234 6.66796875 1.80859375 C7.45558594 1.96199219 8.24320313 2.11539062 9.0546875 2.2734375 C9.69019531 2.47066406 10.32570313 2.66789062 10.98046875 2.87109375 C11.31046875 3.53109375 11.64046875 4.19109375 11.98046875 4.87109375 C11.30242187 5.19980469 10.624375 5.52851562 9.92578125 5.8671875 C2.58175443 9.62057517 -3.13948292 14.11795294 -9.01953125 19.87109375 C-9.591875 20.42796875 -10.16421875 20.98484375 -10.75390625 21.55859375 C-11.8564649 22.6487641 -12.9412676 23.75688798 -14.01953125 24.87109375 C-15.99953125 23.88109375 -17.97953125 22.89109375 -20.01953125 21.87109375 C-18.57858543 17.28703219 -15.96416496 14.27962146 -12.70703125 10.87109375 C-11.99643555 10.10925781 -11.99643555 10.10925781 -11.27148438 9.33203125 C-10.32735253 8.32461287 -9.37543564 7.32442875 -8.41552734 6.33203125 C-7.0461936 4.89899643 -5.72929671 3.41643652 -4.4140625 1.93359375 C-2.01953125 -0.12890625 -2.01953125 -0.12890625 0 0 Z " fill="#FAE854" transform="translate(62.01953125,27.12890625)"/>
<path d="M0 0 C0 0.99 0 1.98 0 3 C-3.08809695 4.76462683 -4.23312136 5 -8 5 C-8 5.66 -8 6.32 -8 7 C-17.12612748 11.03273188 -25.84058179 14.54956356 -35.703125 16.37890625 C-39.9896595 17.18644059 -44.17008351 18.31091024 -48.37890625 19.44921875 C-50.9997247 19.99994215 -53.3307569 20.10136366 -56 20 C-57.205464 16.38360801 -56.3844923 15.19018982 -54.8359375 11.8515625 C-53.68400129 9.30007762 -52.84530619 6.66596567 -52 4 C-50.56911472 6.86177057 -51.40008303 8.93375773 -52 12 C-36.87258262 12.27338706 -23.43222554 10.07366122 -10 3 C-2.9 0 -2.9 0 0 0 Z " fill="#E3E5DA" transform="translate(78,153)"/>
<path d="M0 0 C0.495 1.485 0.495 1.485 1 3 C1.5775 3.12375 2.155 3.2475 2.75 3.375 C6.18095118 4.32804199 7.79165142 6.28688603 10 9 C9.63671875 11.16796875 9.63671875 11.16796875 9 13 C-25.20515192 13.61486031 -25.20515192 13.61486031 -33 9 C-33 8.01 -33 7.02 -33 6 C-33.99 5.67 -34.98 5.34 -36 5 C-27.72832578 4.71201134 -19.95206123 5.36743464 -11.94921875 7.5625 C-9.82155517 8.04005175 -7.92732257 8.09878871 -5.75 8.0625 C-4.5125 8.041875 -3.275 8.02125 -2 8 C-1.34 5.36 -0.68 2.72 0 0 Z " fill="#E1E4E0" transform="translate(215,93)"/>
<path d="M0 0 C0.38218767 1.65614657 0.71395102 3.32457024 1 5 C0.67 5.33 0.34 5.66 0 6 C-0.23075082 7.34747084 -0.41153063 8.70377565 -0.5625 10.0625 C-0.706875 11.361875 -0.85125 12.66125 -1 14 C-1.33 14 -1.66 14 -2 14 C-2.1953125 11.98177083 -2.390625 9.96354167 -2.5859375 7.9453125 C-2.86374749 5.77331755 -2.86374749 5.77331755 -5 4 C-13.228761 4.13714602 -20.40636415 7.02279855 -28 10 C-28.80566406 10.309375 -29.61132812 10.61875 -30.44140625 10.9375 C-36.26705178 13.34071289 -41.49785137 16.64700486 -46.8125 20.01171875 C-48.69928199 21.18864526 -50.60924897 22.33155775 -52.5625 23.39453125 C-60.84858687 27.90554236 -67.28139221 34.47501203 -74 41 C-74 35.73122997 -69.57320169 32.57320169 -66 29 C-55.34390079 19.37099469 -44.49374359 12.79578966 -31 8 C-29.6313654 7.48035799 -28.26422899 6.95675683 -26.8984375 6.4296875 C-26.19871826 6.16099854 -25.49899902 5.89230957 -24.77807617 5.61547852 C-23.42851589 5.09712002 -22.07966536 4.57690812 -20.73168945 4.05444336 C-13.86701284 1.45459975 -7.3907031 -0.30794596 0 0 Z " fill="#E2E5E1" transform="translate(112,102)"/>
<path d="M0 0 C15.82537257 -0.9382632 15.82537257 -0.9382632 22.2578125 3.39453125 C26.09568912 6.93122921 27.79356036 10.5472172 28.23046875 15.73828125 C28.24770296 18.1751982 28.17923644 20.57035049 28 23 C24.71023192 24.09658936 23.28696233 23.79953138 20 23 C19.72027344 21.95199219 19.44054687 20.90398437 19.15234375 19.82421875 C18.74886432 18.44488209 18.34383423 17.06599837 17.9375 15.6875 C17.66776367 14.65206055 17.66776367 14.65206055 17.39257812 13.59570312 C16.53200987 10.7681217 15.78592817 8.51772331 13.25439453 6.85009766 C11.12079548 5.89500379 11.12079548 5.89500379 8 5 C8 3.68 8 2.36 8 1 C5.36 1 2.72 1 0 1 C0 0.67 0 0.34 0 0 Z " fill="#969862" transform="translate(162,98)"/>
<path d="M0 0 C0.33 0.66 0.66 1.32 1 2 C3.02463255 2.65213292 3.02463255 2.65213292 5 3 C4.01 3.33 3.02 3.66 2 4 C1.91363281 4.83660156 1.82726562 5.67320313 1.73828125 6.53515625 C0.74880139 14.73240679 -1.06993824 21.88991896 -3.87890625 29.625 C-4.92266491 32.76718635 -5.55573679 35.7254307 -6 39 C-6.33 39 -6.66 39 -7 39 C-7 35.04 -7 31.08 -7 27 C-8.65 26.67 -10.3 26.34 -12 26 C-14.8125 24.4375 -14.8125 24.4375 -17 23 C-15.10864015 20.79341351 -13.81198491 19.9239939 -11.0625 18.8125 C-6.83697442 16.31167874 -5.83616743 13.4159068 -4 9 C-3.25150277 7.3326579 -2.50152934 5.66597762 -1.75 4 C-1.16477801 2.66749455 -0.58073946 1.33446515 0 0 Z " fill="#DFE1D2" transform="translate(132,85)"/>
<path d="M0 0 C2 1 2 1 2.74609375 2.90625 C4.31466335 8.79060149 5.59041944 14.6998431 6.6875 20.6875 C6.81890381 21.38746094 6.95030762 22.08742187 7.08569336 22.80859375 C8.49150605 30.84504613 8.03031655 38.04511126 6.5 46 C6.35691406 46.77472656 6.21382812 47.54945313 6.06640625 48.34765625 C5.71727671 50.23295579 5.35954684 52.11665939 5 54 C4.67 54 4.34 54 4 54 C3.98541748 52.86570557 3.97083496 51.73141113 3.95581055 50.56274414 C3.8974506 46.31878525 3.82022272 42.0753362 3.73754883 37.83178711 C3.70447569 36.00179372 3.67639001 34.17170263 3.65356445 32.34155273 C3.61969193 29.69733387 3.56736359 27.05399621 3.51171875 24.41015625 C3.50213387 23.20021751 3.50213387 23.20021751 3.49235535 21.96583557 C3.36380572 16.89942355 2.47145606 12.7231918 0.65657043 7.98582458 C-0.23574321 5.28698487 -0.21642937 2.81358184 0 0 Z " fill="#6E9B67" transform="translate(150,116)"/>
<path d="M0 0 C3.63776711 3.12134088 4.81598525 5.72036125 6.0625 10.3125 C7.55708771 15.62092958 7.55708771 15.62092958 9.6875 20.6875 C11.42755042 25.07905581 11.72657421 29.31404772 12 34 C11.67 34 11.34 34 11 34 C10.67 35.98 10.34 37.96 10 40 C9.67 40 9.34 40 9 40 C8.82984375 38.98421875 8.6596875 37.9684375 8.484375 36.921875 C6.78525601 27.135236 4.93386759 17.46306379 0.1875 8.625 C-1.29765602 5.34202353 -0.89824599 3.42966649 0 0 Z " fill="#D6D9BA" transform="translate(146,96)"/>
<path d="M0 0 C0.185625 0.5775 0.37125 1.155 0.5625 1.75 C4.01305652 7.15087107 11.17411697 8.93156703 17.0625 10.5625 C18.15872681 10.87610474 18.15872681 10.87610474 19.27709961 11.19604492 C26.1193436 13.11465964 33.02503122 14.64037851 40 16 C40 16.33 40 16.66 40 17 C32.83437211 17.28100502 26.05453001 16.20443195 19 15 C19 14.34 19 13.68 19 13 C18.360625 13.185625 17.72125 13.37125 17.0625 13.5625 C16.381875 13.706875 15.70125 13.85125 15 14 C14.67 13.67 14.34 13.34 14 13 C12.60922693 12.70427773 11.2120639 12.43834311 9.8125 12.1875 C5.48645065 11.25753716 2.45372063 9.86406101 -1 7 C-2.375 4.75 -2.375 4.75 -3 3 C-2.01 2.01 -1.02 1.02 0 0 Z " fill="#DBE1D7" transform="translate(59,18)"/>
<path d="M0 0 C1.46224799 0.42423244 2.91973412 0.86490245 4.375 1.3125 C5.18710938 1.55613281 5.99921875 1.79976562 6.8359375 2.05078125 C9 3 9 3 11 6 C7.4603015 9.0620682 4.14881875 11.00469904 -0.1875 12.75 C-1.75564453 13.39195313 -1.75564453 13.39195313 -3.35546875 14.046875 C-6 15 -6 15 -8 15 C-8 14.34 -8 13.68 -8 13 C-9.32 12.67 -10.64 12.34 -12 12 C-10.95199219 11.58427734 -10.95199219 11.58427734 -9.8828125 11.16015625 C-8.97273437 10.79792969 -8.06265625 10.43570313 -7.125 10.0625 C-6.22007812 9.70285156 -5.31515625 9.34320313 -4.3828125 8.97265625 C-2.03862333 8.05098738 -2.03862333 8.05098738 0 7 C0 4.69 0 2.38 0 0 Z " fill="#DBE0DA" transform="translate(171,24)"/>
<path d="M0 0 C1.39603943 0.41597563 2.79181199 0.83284683 4.1875 1.25 C5.54681641 1.65605469 5.54681641 1.65605469 6.93359375 2.0703125 C9.07532603 2.71965299 11.21308355 3.38218502 13.34765625 4.0546875 C15.03181641 4.58449219 15.03181641 4.58449219 16.75 5.125 C17.79671875 5.45757812 18.8434375 5.79015625 19.921875 6.1328125 C23.00863305 7.07307102 23.00863305 7.07307102 26.3046875 7.48828125 C27.63886719 7.74158203 27.63886719 7.74158203 29 8 C30.375 10.0625 30.375 10.0625 31 12 C30.34644531 11.67773438 29.69289062 11.35546875 29.01953125 11.0234375 C25.23407393 9.74039763 21.63820209 9.70834997 17.6875 9.625 C11.09737852 9.37244864 6.66768959 8.59680301 1 5 C-0.65697379 4.30959426 -2.31923769 3.63028587 -4 3 C-2.68 2.67 -1.36 2.34 0 2 C0 1.34 0 0.68 0 0 Z " fill="#D7DBCF" transform="translate(151,89)"/>
<path d="M0 0 C1 2 1 2 0.36328125 4.0234375 C-3.04465944 11.65013006 -6.62175703 15.17424438 -14 19 C-14.66 19 -15.32 19 -16 19 C-16.33 17.02 -16.66 15.04 -17 13 C-16.41992188 12.69707031 -15.83984375 12.39414063 -15.2421875 12.08203125 C-9.21340779 8.84877481 -3.86904389 5.80356583 0 0 Z " fill="#4A4939" transform="translate(129,89)"/>
<path d="M0 0 C0 0.33 0 0.66 0 1 C-28.215 1.495 -28.215 1.495 -57 2 C-57 1.67 -57 1.34 -57 1 C-38.5011747 -2.06345066 -18.51145716 -4.0981658 0 0 Z " fill="#D2DAC2" transform="translate(126,12)"/>
<path d="M0 0 C1.2000409 3.76679506 0.64490828 6.15704683 -0.84765625 9.84375 C-3.80003967 15.36820981 -8.6136766 19.6136766 -13 24 C-13.598125 24.804375 -14.19625 25.60875 -14.8125 26.4375 C-17.43597902 29.51071828 -20.33755973 32.21551634 -24 34 C-24.99 33.67 -25.98 33.34 -27 33 C-26.5153125 32.5875 -26.030625 32.175 -25.53125 31.75 C-23.33306017 29.85617492 -21.16365979 27.93316682 -19 26 C-18.35289063 25.4328125 -17.70578125 24.865625 -17.0390625 24.28125 C-10.25207737 17.96519853 -2.95751512 8.87254536 0 0 Z " fill="#D0DACD" transform="translate(109,117)"/>
<path d="M0 0 C3.1395872 2.73007582 3.77926019 4.96802431 4.22119141 9.03613281 C4.3658398 11.44043833 4.5039947 13.84436941 4.625 16.25 C4.67003662 17.13010742 4.71507324 18.01021484 4.76147461 18.91699219 C5.11246078 27.01083541 4.73216718 34.93489694 4 43 C3.67 43 3.34 43 3 43 C2.93941406 41.87980469 2.87882813 40.75960937 2.81640625 39.60546875 C2.73198576 38.13280016 2.64733851 36.66014456 2.5625 35.1875 C2.52318359 34.44951172 2.48386719 33.71152344 2.44335938 32.95117188 C2.25618965 29.76928658 2.01279207 27.03837622 1 24 C1 22.04415987 1.00117048 20.08769083 1.0625 18.1328125 C1.06020667 15.94083782 1.06020667 15.94083782 0.50390625 13.60546875 C-0.05065743 10.73807358 -0.09765164 8.10508637 -0.0625 5.1875 C-0.05347656 4.21167969 -0.04445312 3.23585937 -0.03515625 2.23046875 C-0.02355469 1.49441406 -0.01195312 0.75835937 0 0 Z " fill="#E8E3B7" transform="translate(156,129)"/>
<path d="M0 0 C0 0.99 0 1.98 0 3 C-3.08809695 4.76462683 -4.23312136 5 -8 5 C-8 5.66 -8 6.32 -8 7 C-17.22551253 11.77676538 -17.22551253 11.77676538 -23 10 C-19.88618393 7.43875561 -16.79510578 5.93901481 -13.0625 4.4375 C-12.04285156 4.02371094 -11.02320312 3.60992187 -9.97265625 3.18359375 C-8.50119141 2.59771484 -8.50119141 2.59771484 -7 2 C-6.09121094 1.61972656 -5.18242188 1.23945313 -4.24609375 0.84765625 C-2 0 -2 0 0 0 Z " fill="#D4DCCC" transform="translate(78,153)"/>
<path d="M0 0 C0.66 0.33 1.32 0.66 2 1 C4.19375679 7.58127036 2.77919143 14.35050943 1.5 21 C1.35691406 21.77472656 1.21382812 22.54945313 1.06640625 23.34765625 C0.71727671 25.23295579 0.35954684 27.11665939 0 29 C-0.33 29 -0.66 29 -1 29 C-0.67 19.43 -0.34 9.86 0 0 Z " fill="#468834" transform="translate(155,141)"/>
<path d="M0 0 C1.60080151 4.00200378 0.29279692 7.04556236 -1 11 C-5.15654359 10.53816182 -7.21466571 10.11990898 -10 7 C-9.36191406 6.66226563 -8.72382812 6.32453125 -8.06640625 5.9765625 C-7.24011719 5.53054687 -6.41382812 5.08453125 -5.5625 4.625 C-4.73878906 4.18414062 -3.91507812 3.74328125 -3.06640625 3.2890625 C-0.86533422 2.16581441 -0.86533422 2.16581441 0 0 Z " fill="#E8D853" transform="translate(125,100)"/>
<path d="M0 0 C2.54173977 -0.02716824 5.08318415 -0.04691969 7.625 -0.0625 C8.33785156 -0.07087891 9.05070312 -0.07925781 9.78515625 -0.08789062 C13.97344438 -0.10710296 17.8728462 0.1732673 22 1 C22 1.33 22 1.66 22 2 C14.96928537 3.27831175 6.84867189 4.28289063 0 2 C0 1.34 0 0.68 0 0 Z " fill="#808C63" transform="translate(81,45)"/>
<path d="M0 0 C0.38218767 1.65614657 0.71395102 3.32457024 1 5 C0.67 5.33 0.34 5.66 0 6 C-0.23075082 7.34747084 -0.41153063 8.70377565 -0.5625 10.0625 C-0.706875 11.361875 -0.85125 12.66125 -1 14 C-1.33 14 -1.66 14 -2 14 C-2.1953125 11.98177083 -2.390625 9.96354167 -2.5859375 7.9453125 C-2.86374749 5.77331755 -2.86374749 5.77331755 -5 4 C-6.64991582 3.29289322 -8.31562256 2.62056011 -10 2 C-6.3558226 -0.4294516 -4.28758728 -0.16179575 0 0 Z " fill="#C7D5C4" transform="translate(112,102)"/>
<path d="M0 0 C3.90360842 0.41527749 7.36377392 1.05204742 11.0625 2.375 C17.22065942 4.54532355 23.60967689 5.71829935 30 7 C30 7.33 30 7.66 30 8 C22.83437211 8.28100502 16.05453001 7.20443195 9 6 C9 5.01 9 4.02 9 3 C4.545 2.01 4.545 2.01 0 1 C0 0.67 0 0.34 0 0 Z " fill="#B6CCB0" transform="translate(69,27)"/>
<path d="M0 0 C1.98510058 1.63707833 2.91847304 2.50096147 3.34057617 5.0847168 C3.32486572 5.86500244 3.30915527 6.64528809 3.29296875 7.44921875 C3.28330078 8.29677734 3.27363281 9.14433594 3.26367188 10.01757812 C3.23853516 10.89865234 3.21339844 11.77972656 3.1875 12.6875 C3.16719727 14.02651367 3.16719727 14.02651367 3.14648438 15.39257812 C3.11114079 17.59566166 3.06180493 19.79752582 3 22 C2.67 22 2.34 22 2 22 C0.39118425 14.57359158 -0.26442904 7.59498961 0 0 Z " fill="#E2E4DC" transform="translate(156,129)"/>
<path d="M0 0 C0.99 0.33 1.98 0.66 3 1 C-1.95 5.62 -6.9 10.24 -12 15 C-12 11.11566834 -10.82920314 10.32394504 -8.25 7.5 C-7.55390625 6.7265625 -6.8578125 5.953125 -6.140625 5.15625 C-4.1693215 3.17055742 -2.39841465 1.44294865 0 0 Z " fill="#D7DED5" transform="translate(50,128)"/>
<path d="M0 0 C0.66 0 1.32 0 2 0 C1.67 1.65 1.34 3.3 1 5 C-3.95 6.485 -3.95 6.485 -9 8 C-9.66 7.34 -10.32 6.68 -11 6 C-10.28972656 5.65066406 -9.57945312 5.30132812 -8.84765625 4.94140625 C-7.92855469 4.48636719 -7.00945312 4.03132813 -6.0625 3.5625 C-4.68771484 2.88380859 -4.68771484 2.88380859 -3.28515625 2.19140625 C-1.09471096 1.19474606 -1.09471096 1.19474606 0 0 Z " fill="#56574F" transform="translate(181,30)"/>
<path d="M0 0 C-2.07866562 2.07866562 -3.22106569 2.56922921 -5.9375 3.5 C-8.71216611 4.45427769 -10.49805605 5.33203737 -13 7 C-12.9375 5.25 -12.9375 5.25 -12 3 C-5.15121951 -1.87317073 -5.15121951 -1.87317073 0 0 Z " fill="#D8DDD7" transform="translate(83,112)"/>
<path d="M0 0 C0.66 0 1.32 0 2 0 C1.67 2.97 1.34 5.94 1 9 C-0.65 9.33 -2.3 9.66 -4 10 C-4.33 9.01 -4.66 8.02 -5 7 C-4.01 6.67 -3.02 6.34 -2 6 C-0.77479736 2.99152582 -0.77479736 2.99152582 0 0 Z " fill="#4B8B3B" transform="translate(152,173)"/>
<path d="M0 0 C0.33 1.32 0.66 2.64 1 4 C-1.31 4.66 -3.62 5.32 -6 6 C-6 5.34 -6 4.68 -6 4 C-7.32 3.67 -8.64 3.34 -10 3 C-8.70990357 2.49596232 -7.41786211 1.99690074 -6.125 1.5 C-5.04605469 1.08234375 -5.04605469 1.08234375 -3.9453125 0.65625 C-2 0 -2 0 0 0 Z " fill="#CAD4C7" transform="translate(169,33)"/>
<path d="M0 0 C2 1 2 1 3.125 4.1875 C3.91680237 7.63749602 4.1714979 10.484293 4 14 C0.73262697 10.73262697 0.04327104 7.16831802 -0.125 2.625 C-0.08375 1.75875 -0.0425 0.8925 0 0 Z " fill="#4C8B3C" transform="translate(150,116)"/>
<path d="M0 0 C4.95 0 9.9 0 15 0 C15 0.66 15 1.32 15 2 C11.42619658 3.19126781 9.49116698 2.7349445 5.8125 2.0625 C4.72582031 1.86785156 3.63914062 1.67320313 2.51953125 1.47265625 C1.27236328 1.23869141 1.27236328 1.23869141 0 1 C0 0.67 0 0.34 0 0 Z " fill="#E6E7DE" transform="translate(108,37)"/>
<path d="M0 0 C0.99 0.33 1.98 0.66 3 1 C3.73046875 3.06640625 3.73046875 3.06640625 4.1875 5.5625 C4.34605469 6.38878906 4.50460938 7.21507813 4.66796875 8.06640625 C4.77753906 8.70449219 4.88710937 9.34257813 5 10 C4.34 10 3.68 10 3 10 C0 3.375 0 3.375 0 0 Z " fill="#E1E3DB" transform="translate(146,100)"/>
<path d="M0 0 C0 1.32 0 2.64 0 4 C-2.875 4.625 -2.875 4.625 -6 5 C-6.66 4.34 -7.32 3.68 -8 3 C-2.25 0 -2.25 0 0 0 Z " fill="#C9D6C0" transform="translate(63,159)"/>
<path d="M0 0 C0.66 0 1.32 0 2 0 C2 3.3 2 6.6 2 10 C1.01 10 0.02 10 -1 10 C-0.67 6.7 -0.34 3.4 0 0 Z " fill="#929854" transform="translate(188,111)"/>
<path d="M0 0 C0.33 0 0.66 0 1 0 C1.125 7.75 1.125 7.75 0 10 C1.65 10 3.3 10 5 10 C5 10.33 5 10.66 5 11 C2.69 11 0.38 11 -2 11 C-2 7.07103605 -0.99700137 3.80106772 0 0 Z " fill="#C3BC5F" transform="translate(137,70)"/>
<path d="M0 0 C1.06826637 4.27306547 1.13619149 5.31021469 -1 9 C-2.65 9.66 -4.3 10.32 -6 11 C-4.02 7.37 -2.04 3.74 0 0 Z " fill="#C7D6C4" transform="translate(109,117)"/>
<path d="M0 0 C0 0.66 0 1.32 0 2 C-4.455 2.495 -4.455 2.495 -9 3 C-9.33 2.34 -9.66 1.68 -10 1 C-6.52674819 -0.1577506 -3.63932552 -0.06866652 0 0 Z " fill="#DCDBAA" transform="translate(112,102)"/>
<path d="M0 0 C0.33 0.66 0.66 1.32 1 2 C3.02463255 2.65213292 3.02463255 2.65213292 5 3 C4.01 3.33 3.02 3.66 2 4 C1.67 6.64 1.34 9.28 1 12 C0.67 12 0.34 12 0 12 C-1.39130435 2.7826087 -1.39130435 2.7826087 0 0 Z " fill="#CAD3BE" transform="translate(132,85)"/>
<path d="M0 0 C2.46278801 2.46278801 2.99771255 4.70676982 4 8 C3.34 7.67 2.68 7.34 2 7 C1.34 7.66 0.68 8.32 0 9 C-1.125 2.25 -1.125 2.25 0 0 Z " fill="#D3D8BD" transform="translate(151,108)"/>
<path d="M0 0 C5.21979128 -0.1799928 9.07262981 0.02905192 14 2 C12.02 2.99 12.02 2.99 10 4 C9.67 3.67 9.34 3.34 9 3 C7.48834346 2.60851239 5.96530368 2.26027543 4.4375 1.9375 C3.61121094 1.76089844 2.78492187 1.58429687 1.93359375 1.40234375 C1.29550781 1.26957031 0.65742187 1.13679688 0 1 C0 0.67 0 0.34 0 0 Z " fill="#E6E4BC" transform="translate(64,28)"/>
<path d="M0 0 C0.99 0.33 1.98 0.66 3 1 C3.625 3.875 3.625 3.875 4 7 C3.34 7.66 2.68 8.32 2 9 C1.34 6.03 0.68 3.06 0 0 Z " fill="#679A5B" transform="translate(147,109)"/>
<path d="M0 0 C-1.04874998 2.62187494 -1.64931313 3.79371361 -4.125 5.25 C-4.74375 5.4975 -5.3625 5.745 -6 6 C-5.6875 4.125 -5.6875 4.125 -5 2 C-2 0 -2 0 0 0 Z " fill="#E2E5E1" transform="translate(108,126)"/>
<path d="M0 0 C0 0.99 0 1.98 0 3 C-1.98 3.66 -3.96 4.32 -6 5 C-3.74193548 0 -3.74193548 0 0 0 Z " fill="#DAE1D8" transform="translate(78,153)"/>
</svg>
